<svg width="39" height="39" viewBox="0 0 39 39" fill="none" xmlns="http://www.w3.org/2000/svg">
<rect opacity="0.25" x="0.75" y="0.75" width="37.5" height="36.9748" rx="18.4874" stroke="white" stroke-width="1.5"/>
<path d="M16.4395 12.0195C14.0017 12.0195 12.0195 14.0017 12.0195 16.4395V22.5595C12.0195 24.9973 14.0017 26.9795 16.4395 26.9795H22.5595C24.9973 26.9795 26.9795 24.9973 26.9795 22.5595V16.4395C26.9795 14.0017 24.9973 12.0195 22.5595 12.0195H16.4395ZM23.5795 14.7395C23.9535 14.7395 24.2595 15.0455 24.2595 15.4195C24.2595 15.7935 23.9535 16.0995 23.5795 16.0995C23.2055 16.0995 22.8995 15.7935 22.8995 15.4195C22.8995 15.0455 23.2055 14.7395 23.5795 14.7395ZM19.4995 15.7595C21.5633 15.7595 23.2395 17.4357 23.2395 19.4995C23.2395 21.5633 21.5633 23.2395 19.4995 23.2395C17.4357 23.2395 15.7595 21.5633 15.7595 19.4995C15.7595 17.4357 17.4357 15.7595 19.4995 15.7595ZM19.4995 16.4395C17.8131 16.4395 16.4395 17.8131 16.4395 19.4995C16.4395 21.1859 17.8131 22.5595 19.4995 22.5595C21.1859 22.5595 22.5595 21.1859 22.5595 19.4995C22.5595 17.8131 21.1859 16.4395 19.4995 16.4395Z" fill="white"/>
</svg>
