<svg width="39" height="39" viewBox="0 0 39 39" fill="none" xmlns="http://www.w3.org/2000/svg">
<rect opacity="0.25" x="0.75" y="0.75" width="37.5" height="36.9748" rx="18.4874" stroke="white" stroke-width="1.5"/>
<path fill-rule="evenodd" clip-rule="evenodd" d="M16 25.6522H13V16.7734H16V25.6522V25.6522Z" fill="white"/>
<path fill-rule="evenodd" clip-rule="evenodd" d="M14.4911 14.7994H14.474C13.5788 14.7994 13 14.1414 13 13.3191C13 12.4794 13.5964 11.8398 14.5087 11.8398C15.4209 11.8398 15.9827 12.4794 16 13.3191C16 14.1414 15.4209 14.7994 14.4911 14.7994V14.7994Z" fill="white"/>
<path fill-rule="evenodd" clip-rule="evenodd" d="M26.9999 25.652H24.0519V21.0109C24.0519 19.8452 23.6253 19.0497 22.5581 19.0497C21.7437 19.0497 21.2586 19.586 21.0455 20.104C20.9675 20.2896 20.9484 20.5482 20.9484 20.8075V25.6522H18C18 25.6522 18.0389 17.7914 18 16.9774H20.9484V18.2061C21.3397 17.6154 22.0405 16.7734 23.6057 16.7734C25.5456 16.7734 27 18.0136 27 20.6781L26.9999 25.652V25.652Z" fill="white"/>
</svg>
