<svg width="1440" height="4520" viewBox="0 0 1440 4520" fill="none" xmlns="http://www.w3.org/2000/svg">
<path d="M-49.6349 4519.88C-107.522 4178.04 -145.153 3855.37 -130.897 3592.37C-126.278 3507.1 -116.061 3427.77 -85.2068 3375.97C-22.2924 3270.33 121.754 3284.91 223.389 3235.78C352.477 3173.39 411.545 3003.37 396.058 2751.39C384.397 2561.78 341.309 2303 398.781 2195.68C450.991 2098.18 705.63 2294.29 843.492 2346.9C984.691 2400.78 1082.66 2370.11 1127.78 2269.3C1151.42 2216.48 1160.72 2144.34 1154.06 2054.73C1147.69 1969.03 1100.61 1831.39 1204.14 1898.26C1238.37 1920.37 1279.26 1961.79 1316.79 1993.1C1447.22 2101.9 1526.97 2067.22 1491.48 1917.14M-49.934 4508.22C-112.897 4164.46 -153.503 3840.01 -139.544 3578.13C-134.964 3490.83 -122.771 3412.49 -92.8812 3357.5C-56.6482 3291.39 8.14691 3267.34 76.3207 3248.02C122.853 3234.82 170.969 3223.84 212.679 3203.23C295.063 3162.5 351.784 3082.27 381.574 2968.94C398.988 2902.67 407.166 2825.06 405.714 2737.07C404.841 2675.48 400.486 2606.21 397.767 2537.82C394.076 2441.84 393.685 2347.64 409.888 2277.11C415.665 2251.73 423.576 2229.4 434.299 2211.3C478.724 2136.61 642.486 2234.48 774.495 2299.32C809.971 2316.83 843.164 2331.98 871.185 2340.78C986.812 2377.67 1070.23 2353.15 1116.47 2277.13C1124.44 2264.04 1131.31 2249.43 1137.06 2233.32C1157.56 2175.91 1164.1 2099.66 1156.25 2007.54C1151.59 1952.97 1132.19 1879.49 1142.23 1846.23C1148.4 1825.76 1165.82 1820.79 1204.39 1844.38C1238.09 1865 1278.3 1904.23 1315.41 1933.93C1444.33 2037.26 1525.3 2003.17 1492.13 1853.85M-50.2198 4496.58C-118.272 4150.88 -161.84 3824.67 -148.172 3563.91C-143.637 3474.55 -129.474 3397.2 -100.524 3339.06C-65.4482 3269.64 -1.92118 3241.84 65.6601 3219.69C111.799 3204.55 159.838 3192.04 202.008 3170.72C285.336 3128.66 345.187 3050.4 380.203 2942.37C400.681 2879.21 412.591 2805.79 415.409 2722.79C417.663 2664.75 416.665 2599.53 417.32 2535.32C418.464 2445.24 422.968 2357.19 442.563 2290.1C449.51 2265.94 458.383 2244.5 469.855 2226.92C517.546 2154.4 678.171 2244.58 805.802 2300.32C840.099 2315.47 871.97 2328.02 898.883 2334.63C1009.31 2361.75 1087.51 2328.98 1128.45 2245.1C1135.51 2230.68 1141.46 2214.72 1146.34 2197.34C1163.73 2135.33 1167.51 2054.97 1158.44 1960.32C1153.06 1904.23 1133.81 1830.23 1143.65 1795.76C1149.71 1774.53 1166.96 1768.78 1204.63 1790.48C1237.83 1809.6 1277.34 1846.62 1314.03 1874.74C1441.44 1972.6 1523.63 1939.09 1492.8 1790.57M-50.5131 4484.94C-123.635 4137.33 -170.192 3809.31 -156.813 3549.69C-152.311 3458.3 -136.179 3381.94 -108.193 3320.61C-74.2864 3247.86 -12.0151 3216.33 54.9737 3191.35C100.707 3174.24 148.663 3160.22 191.322 3138.22C275.578 3094.81 338.576 3018.54 378.826 2915.82C402.359 2855.76 417.72 2786.2 425.102 2708.53C430.292 2653.82 432.862 2592.89 436.868 2532.84C442.85 2448.67 452.238 2366.76 475.239 2303.13C483.348 2280.2 493.196 2259.65 505.392 2242.59C556.355 2172.22 713.532 2254.11 837.109 2301.38C870.158 2314.02 900.827 2324.22 926.595 2328.56C1032.02 2346.3 1104.82 2304.87 1140.42 2213.12C1146.57 2197.35 1151.62 2180.08 1155.62 2161.41C1169.88 2094.8 1170.91 2010.34 1160.62 1913.16C1154.52 1855.54 1135.41 1781.02 1145.05 1745.35C1150.99 1723.34 1168.06 1716.8 1204.89 1736.65C1237.55 1754.25 1276.39 1789.1 1312.66 1815.65C1438.58 1908.03 1521.99 1875.12 1493.47 1727.35M-50.8125 4473.28C-129.011 4123.75 -178.542 3793.96 -165.473 3535.43C-161.016 3441.99 -143.136 3366.33 -115.867 3302.14C-83.3905 3225.72 -22.1207 3190.81 44.2688 3162.96C89.6034 3143.92 137.469 3128.35 180.6 3105.66C265.789 3060.89 331.918 2986.61 377.405 2889.2C404.002 2832.25 423.021 2766.77 434.747 2694.19C443.014 2642.96 449.003 2586.18 456.359 2530.26C467.175 2452 481.459 2376.23 507.864 2316.07C517.143 2294.35 527.958 2274.7 540.892 2258.16C595.12 2189.96 749.06 2263.99 868.379 2302.35C900.23 2312.59 929.641 2320.34 954.263 2322.4C1054.67 2330.77 1122.08 2280.69 1152.37 2181.08C1157.61 2163.98 1161.75 2145.38 1164.87 2125.41C1176 2054.21 1174.28 1965.64 1162.8 1865.96C1155.97 1806.81 1137.02 1731.79 1146.45 1694.89C1152.27 1672.1 1169.17 1664.76 1205.11 1682.75C1237.26 1698.84 1275.4 1731.51 1311.26 1756.47C1435.68 1843.38 1520.3 1811.05 1494.12 1664.07M-51.1039 4461.65C-134.391 4110.18 -186.898 3778.6 -174.107 3521.21C-169.683 3425.73 -149.889 3351 -123.516 3283.7C-92.2521 3203.9 -32.1947 3165.32 33.6023 3134.64C78.5312 3113.64 126.314 3096.54 169.935 3073.17C256.051 3027.06 325.322 2954.77 376.036 2862.66C405.688 2808.8 428.385 2747.44 444.442 2679.93C455.793 2632.2 464.998 2579.3 475.913 2527.78C491.298 2455.09 511.003 2386.17 540.547 2329.1C551.088 2308.74 562.773 2289.85 576.455 2273.84C633.955 2207.79 784.659 2273.99 899.699 2303.4C930.347 2311.24 958.511 2316.54 981.987 2316.32C1077.41 2315.37 1139.39 2256.58 1164.37 2149.09C1168.68 2130.65 1171.93 2110.73 1174.17 2089.47C1182.17 2013.65 1177.7 1920.98 1165.01 1818.78C1157.46 1758.11 1138.66 1682.57 1147.89 1644.46C1153.58 1620.89 1170.31 1612.75 1205.38 1628.89C1237.01 1643.46 1274.45 1673.94 1309.9 1697.32C1432.81 1778.77 1518.65 1747.02 1494.79 1600.8M-51.4037 4449.99C-139.767 4096.6 -195.249 3763.24 -182.755 3506.97C-178.382 3409.44 -156.642 3335.66 -131.191 3265.23C-101.14 3182.05 -42.2822 3139.8 22.9099 3106.28C67.4456 3083.33 115.138 3064.69 159.225 3040.63C246.274 2993.16 318.675 2922.85 374.64 2836.07C407.355 2785.33 433.728 2728.06 454.111 2665.63C468.552 2621.4 481.14 2572.58 495.436 2525.27C515.622 2458.43 540.292 2395.76 573.204 2342.09C584.921 2322.98 597.555 2304.95 611.986 2289.48C672.752 2225.59 820.22 2283.95 931.001 2304.43C960.444 2309.87 987.363 2312.74 1009.68 2310.2C1100.11 2299.95 1156.68 2232.43 1176.34 2117.09C1179.75 2097.31 1182.09 2076.07 1183.46 2053.53C1188.33 1973.12 1181.1 1876.34 1167.21 1771.61C1158.93 1709.42 1140.28 1633.36 1149.32 1594.03C1154.88 1569.69 1171.44 1560.72 1205.64 1575.03C1236.74 1588.05 1273.51 1616.4 1308.54 1638.19C1429.95 1714.17 1517.01 1683.02 1495.46 1537.56M-51.6893 4438.35C-145.123 4083.04 -203.586 3747.91 -191.382 3492.74C-187.042 3393.19 -163.364 3320.36 -138.834 3246.79C-109.983 3160.25 -52.3504 3114.31 12.2493 3077.95C56.3792 3053.04 103.988 3032.88 148.565 3008.14C236.542 2959.32 312.09 2891.01 373.276 2809.52C409.042 2761.87 439.103 2708.72 463.817 2651.36C481.354 2610.63 497.325 2565.9 514.99 2522.76C539.99 2461.79 569.607 2405.37 605.886 2355.1C618.779 2337.23 632.374 2320.07 647.548 2305.13C711.586 2243.4 855.818 2293.95 962.327 2305.47C990.58 2308.53 1016.25 2308.95 1037.41 2304.11C1122.87 2284.6 1174 2208.31 1188.34 2085.1C1190.85 2063.99 1192.26 2041.4 1192.76 2017.59C1194.5 1932.58 1184.53 1831.69 1169.43 1724.46C1160.43 1660.74 1141.93 1584.16 1150.77 1543.62C1156.22 1518.53 1172.58 1508.69 1205.92 1521.2C1236.51 1532.68 1272.58 1558.87 1307.2 1579.08C1427.11 1649.61 1515.38 1619.02 1496.18 1474.35M-51.9807 4426.71C-150.503 4069.47 -211.941 3732.55 -200.034 3478.51C-195.739 3376.9 -170.109 3305.05 -146.513 3228.33C-118.849 3138.43 -62.4545 3088.79 1.54017 3049.57C45.2712 3022.72 92.7903 3001.01 137.845 2975.58C226.754 2925.41 305.445 2859.1 371.857 2782.9C410.691 2738.36 444.454 2689.34 473.463 2637.03C494.107 2599.81 513.443 2559.15 534.489 2520.21C564.292 2465.09 598.854 2414.9 638.52 2368.06C652.594 2351.43 667.139 2335.15 683.055 2320.73C750.36 2261.16 891.369 2303.93 993.605 2306.47C1020.67 2307.14 1045.07 2305.12 1065.09 2297.98C1145.6 2269.24 1191.27 2184.15 1200.28 2053.07C1201.87 2030.61 1202.38 2006.71 1202.01 1981.6C1200.62 1892 1187.9 1787 1171.59 1677.24C1161.87 1611.99 1143.52 1534.92 1152.15 1493.15C1157.47 1467.27 1173.64 1456.57 1206.13 1467.3C1236.19 1477.21 1271.59 1501.28 1305.78 1519.89C1424.2 1584.95 1513.67 1554.94 1496.79 1411.04M-52.2803 4415.05C-155.878 4055.89 -220.292 3717.19 -208.676 3464.26C-204.414 3360.62 -176.844 3289.73 -154.164 3209.87C-127.688 3116.63 -72.5311 3063.27 -9.12895 3021.22C34.1964 2992.41 81.6509 2969.19 127.171 2943.07C217.008 2891.55 298.834 2827.21 370.491 2756.35C412.376 2714.91 449.841 2670.02 483.15 2622.74C506.902 2589.03 529.608 2552.45 554.036 2517.71C588.652 2468.45 628.149 2424.49 671.2 2381.07C686.45 2365.68 701.957 2350.27 718.616 2336.38C789.192 2278.97 926.991 2313.96 1024.92 2307.49C1050.79 2305.79 1073.96 2301.33 1092.81 2291.87C1168.38 2253.92 1208.58 2160.01 1212.28 2021.08C1212.97 1997.28 1212.58 1972.05 1211.32 1945.65C1206.8 1851.45 1191.31 1742.33 1173.8 1630.06C1163.35 1563.29 1145.16 1485.69 1153.59 1442.71C1158.79 1416.06 1174.77 1404.49 1206.41 1413.42C1235.94 1421.77 1270.65 1443.71 1304.44 1460.75C1421.35 1520.34 1512.06 1490.93 1497.5 1347.8M-52.5734 4403.41C-161.248 4042.33 -228.649 3701.84 -217.317 3450.05C-213.1 3344.35 -183.579 3274.43 -161.832 3191.41C-136.539 3094.83 -82.6303 3037.76 -19.8091 2992.87C23.123 2962.12 70.4817 2937.36 116.48 2910.55C207.249 2857.67 292.218 2795.33 369.101 2729.76C414.054 2691.43 455.233 2650.69 492.825 2608.44C519.697 2578.26 545.761 2545.73 573.557 2515.17C613.006 2471.8 657.419 2434.04 703.838 2394.02C720.264 2379.88 736.732 2365.33 754.128 2351.98C827.97 2296.72 962.566 2323.97 1056.2 2308.48C1080.88 2304.39 1102.81 2297.5 1120.49 2285.73C1191.15 2238.62 1225.86 2135.84 1224.23 1989.03C1224 1963.89 1222.72 1937.34 1220.57 1909.65C1212.93 1810.86 1194.69 1697.63 1175.98 1582.85C1164.81 1514.55 1146.76 1436.44 1154.99 1392.25C1160.07 1364.82 1175.84 1352.37 1206.64 1359.53C1235.63 1366.29 1269.62 1386 1303.04 1401.57C1418.24 1455.26 1510.37 1426.86 1498.14 1284.5M-52.8592 4391.78C-166.616 4028.75 -236.981 3686.5 -225.951 3435.83C-221.767 3328.1 -190.289 3259.15 -169.481 3172.98C-145.363 3073.07 -92.7044 3012.27 -30.4757 2964.55C12.0507 2931.83 59.3259 2905.55 105.814 2878.06C197.511 2823.84 285.628 2763.49 367.731 2703.22C415.735 2667.98 460.651 2631.4 502.52 2594.18C532.513 2567.54 561.947 2539.08 593.106 2512.69C637.382 2475.21 686.703 2443.63 736.521 2407.06C754.115 2394.13 771.547 2380.49 789.69 2367.65C866.805 2314.56 998.209 2334.07 1087.54 2309.54C1111.03 2303.1 1131.72 2293.78 1148.22 2279.64C1213.97 2223.41 1243.18 2111.73 1236.24 1957.07C1235.1 1930.59 1232.89 1902.7 1229.88 1873.73C1219.12 1770.34 1198.12 1653 1178.2 1535.69C1166.3 1465.88 1148.41 1387.27 1156.44 1341.84C1161.38 1313.64 1176.95 1300.27 1206.92 1305.71C1235.37 1310.85 1268.69 1328.48 1301.7 1342.48C1415.41 1390.7 1508.75 1362.88 1498.84 1221.29M-53.1588 4380.12C-171.992 4015.18 -245.344 3671.12 -234.605 3421.56C-230.472 3311.78 -197.024 3243.83 -177.163 3154.49C-154.22 3051.25 -102.798 2986.74 -41.1747 2936.16C0.952742 2901.5 48.138 2873.68 95.0976 2845.49C187.728 2789.92 278.974 2731.55 366.316 2676.59C417.389 2644.46 466.019 2612.04 512.176 2579.84C545.289 2556.72 578.093 2532.33 612.621 2510.13C661.73 2478.53 715.954 2453.14 769.165 2420.01C787.935 2408.33 806.328 2395.55 825.196 2383.23C905.576 2332.29 1033.8 2344.1 1118.79 2310.5C1141.1 2301.69 1160.55 2289.94 1175.87 2273.47C1236.75 2208.13 1260.42 2087.52 1248.16 1924.99C1246.11 1897.16 1243 1867.96 1239.12 1837.69C1225.21 1729.69 1201.48 1608.26 1180.34 1488.43C1167.72 1417.08 1149.98 1337.96 1157.81 1291.32C1162.64 1262.36 1177.99 1248.06 1207.12 1251.75C1235.01 1255.27 1267.68 1270.82 1300.28 1283.24C1412.46 1325.97 1507.04 1298.77 1499.47 1157.95M-53.4496 4368.48C-177.359 4001.62 -253.047 3656.54 -243.245 3407.35C-238.862 3295.86 -203.726 3228.57 -184.817 3136.06C-163.031 3029.51 -112.878 2961.25 -51.859 2907.82C-10.1372 2871.2 36.9706 2841.85 84.4145 2812.99C177.972 2756.07 272.36 2699.7 364.941 2650.05C419.064 2621.02 471.451 2592.79 521.865 2565.58C558.111 2546.02 594.286 2525.7 632.152 2507.64C686.093 2481.92 745.215 2462.72 801.83 2433.02C821.763 2422.57 841.13 2410.68 860.741 2398.89C944.393 2350.11 1069.45 2354.23 1150.11 2311.55C1171.23 2300.39 1189.44 2286.2 1203.59 2267.39C1259.6 2192.96 1277.73 2063.42 1260.16 1893.03C1257.2 1863.87 1253.18 1833.33 1248.41 1801.78C1231.38 1689.18 1204.9 1563.65 1182.56 1441.3C1169.22 1368.43 1151.62 1288.78 1159.25 1240.94C1163.96 1211.21 1179.08 1195.98 1207.39 1197.93C1234.72 1199.83 1266.74 1213.3 1298.92 1224.14C1409.58 1261.39 1505.4 1234.78 1500.14 1094.73M-53.7374 4356.84C-182.735 3988.05 -261.386 3641.2 -251.874 3393.12C-247.524 3279.6 -210.424 3213.31 -192.461 3117.62C-171.832 3007.76 -122.948 2935.75 -62.5215 2879.49C-21.1929 2840.93 25.8193 2810.04 73.7405 2780.48C168.243 2722.22 265.749 2667.81 363.569 2623.47C420.76 2597.55 476.892 2573.51 531.558 2551.29C570.955 2535.3 610.469 2519.01 651.704 2505.13C710.49 2485.32 774.49 2472.27 834.516 2446.03C855.618 2436.8 875.935 2425.79 896.301 2414.53C983.219 2367.92 1105.11 2364.34 1181.44 2312.59C1201.38 2299.06 1218.35 2282.45 1231.33 2261.3C1282.49 2177.81 1295.06 2039.3 1272.16 1861.04C1268.29 1830.54 1263.37 1798.68 1257.72 1765.83C1237.56 1648.64 1208.31 1518.97 1184.77 1394.12C1170.72 1319.74 1153.27 1239.58 1160.69 1190.5C1165.28 1159.99 1180.17 1143.82 1207.66 1144.06C1234.43 1144.31 1265.8 1155.76 1297.57 1165.01C1406.73 1196.78 1503.76 1170.76 1500.85 1031.5M-54.0409 4345.19C-188.109 3974.47 -269.754 3625.82 -260.526 3378.88C-256.209 3263.34 -217.139 3198.03 -200.141 3099.15C-180.669 2985.99 -133.052 2910.23 -73.2182 2851.13C-32.2954 2810.61 14.6335 2778.2 63.039 2747.97C158.469 2688.36 259.123 2635.94 362.169 2596.89C422.41 2574.07 482.299 2554.23 541.222 2537C583.752 2524.56 626.637 2512.34 671.228 2502.62C734.866 2488.73 803.738 2481.81 867.168 2459.03C889.434 2451.02 910.725 2440.9 931.828 2430.18C1022.02 2385.72 1140.76 2374.5 1212.74 2313.63C1231.51 2297.76 1247.23 2278.72 1259.01 2255.18C1305.35 2162.67 1312.34 2015.15 1284.12 1829.02C1279.34 1797.18 1273.5 1763.98 1266.98 1729.86C1243.69 1608.07 1211.69 1474.3 1186.94 1346.92C1172.17 1271.02 1154.86 1190.34 1162.09 1140.05C1166.55 1108.76 1181.2 1091.61 1207.89 1090.17C1234.09 1088.77 1264.81 1098.16 1296.17 1105.83C1403.82 1132.14 1502.08 1106.71 1501.48 968.202M-54.3284 4333.55C-193.473 3960.91 -278.732 3609.73 -269.156 3364.66C-265.179 3246.71 -223.831 3182.76 -207.785 3080.71C-189.47 2964.24 -143.127 2884.73 -83.8801 2822.8C-43.3562 2780.34 3.49516 2746.4 52.3656 2715.45C148.729 2654.49 252.525 2604.07 360.803 2570.34C424.113 2550.63 487.754 2535 550.928 2522.73C596.615 2513.88 642.845 2505.69 690.774 2500.11C759.258 2492.13 833.008 2491.35 899.849 2472.03C923.278 2465.25 945.543 2456.02 967.389 2445.82C1060.84 2403.53 1176.44 2384.65 1244.06 2314.65C1261.64 2296.42 1276.14 2274.96 1286.73 2249.08C1328.25 2147.54 1329.65 1991.02 1296.12 1797.03C1290.42 1763.85 1283.69 1729.33 1276.29 1693.91C1249.87 1567.53 1215.12 1429.65 1189.17 1299.76C1173.67 1222.33 1156.52 1141.13 1163.54 1089.63C1167.88 1057.59 1182.28 1039.45 1208.18 1036.34C1233.79 1033.28 1263.96 1040.77 1294.83 1046.72C1401.23 1068.01 1500.45 1042.71 1502.19 904.988M-54.6157 4321.9C-198.849 3947.33 -287.083 3594.37 -277.803 3350.42C-273.865 3230.43 -230.548 3167.48 -215.46 3062.24C-198.29 2942.47 -153.215 2859.22 -94.5856 2794.42C-54.4674 2749.99 -7.6937 2714.53 41.6609 2682.91C138.951 2620.6 245.883 2572.15 359.4 2543.73C425.761 2527.11 493.171 2515.71 560.59 2508.41C609.422 2503.12 659.017 2499.02 710.296 2497.57C783.631 2495.51 862.252 2500.86 932.499 2485.01C957.091 2479.45 980.324 2471.11 1002.91 2461.44C1099.64 2421.3 1212.12 2394.81 1275.34 2315.66C1291.76 2295.09 1305.03 2271.22 1314.42 2242.96C1351.14 2132.42 1346.93 1966.87 1308.08 1765.01C1301.47 1730.48 1293.83 1694.65 1285.56 1657.95C1256.02 1526.97 1218.52 1384.99 1191.36 1252.57C1175.13 1173.62 1158.13 1091.92 1164.95 1039.19C1169.17 1006.37 1183.31 987.246 1208.41 982.467C1233.44 977.713 1263 983.212 1293.45 987.572C1398.35 1003.4 1498.79 978.671 1502.85 841.724M-54.9208 4310.25C-204.23 3933.76 -295.44 3579.02 -286.457 3336.18C-282.564 3214.14 -237.251 3152.22 -223.128 3043.79C-207.103 2920.73 -163.309 2833.71 -105.272 2766.08C-65.5465 2719.71 -18.8682 2682.7 30.9582 2650.39C129.181 2586.73 239.256 2540.28 357.993 2517.16C427.422 2503.65 498.591 2496.47 570.247 2494.12C622.238 2492.42 675.178 2492.35 729.807 2495.06C808.012 2498.94 891.474 2510.39 965.132 2497.99C990.893 2493.66 1015.09 2486.21 1038.43 2477.06C1138.43 2439.08 1247.79 2404.97 1306.63 2316.67C1321.89 2293.78 1333.92 2267.48 1342.11 2236.84C1374.06 2117.35 1364.21 1942.73 1320.04 1733.01C1312.53 1697.15 1303.98 1659.99 1294.83 1622C1262.16 1486.43 1221.89 1340.32 1193.54 1205.41C1176.59 1124.93 1159.74 1042.72 1166.36 988.776C1170.45 955.183 1184.32 935.052 1208.65 928.617C1233.07 922.158 1262.03 925.66 1292.07 928.437C1395.47 938.814 1497.12 914.667 1503.5 778.472M-55.2067 4298.61C-209.592 3920.2 -303.777 3563.68 -295.084 3321.96C-291.225 3197.89 -243.924 3136.97 -230.778 3025.33C-215.897 2898.98 -173.383 2808.2 -115.939 2737.73C-76.6196 2689.39 -30.0246 2650.87 20.2917 2617.88C119.442 2552.87 232.652 2508.39 356.641 2490.6C429.12 2480.19 504.07 2477.25 579.96 2479.85C635.102 2481.74 691.406 2485.72 749.366 2492.56C832.423 2502.36 920.745 2519.91 997.82 2510.99C1024.74 2507.89 1049.92 2501.33 1073.99 2492.71C1177.25 2456.89 1283.51 2415.16 1337.95 2317.7C1352.04 2292.46 1362.84 2263.75 1369.83 2230.73C1397.02 2102.27 1381.53 1918.59 1332.03 1701C1323.6 1663.79 1314.15 1625.3 1304.12 1586.03C1268.32 1445.85 1225.31 1295.65 1195.74 1158.21C1178.07 1076.21 1161.37 993.477 1167.78 938.305C1171.75 903.936 1185.35 882.797 1208.9 874.713C1232.71 866.547 1261.07 868.073 1290.68 869.247C1392.58 874.157 1495.46 850.586 1504.17 715.181M-55.4983 4286.97C-214.966 3906.63 -312.127 3548.32 -303.724 3307.74C-299.91 3181.62 -250.614 3121.73 -238.433 3006.9C-224.69 2877.26 -183.463 2782.71 -126.611 2709.41C-87.6851 2659.13 -41.1855 2619.06 9.60253 2585.38C109.686 2519.01 226.038 2476.54 355.247 2464.04C430.795 2456.74 509.504 2458.04 589.631 2465.58C647.931 2471.06 707.587 2479.09 768.897 2490.07C856.819 2505.81 949.986 2529.45 1030.48 2524.01C1058.57 2522.11 1084.72 2516.47 1109.53 2508.37C1216.07 2474.71 1319.23 2425.38 1369.26 2318.75C1382.2 2291.19 1391.76 2260.05 1397.53 2224.64C1419.96 2087.21 1398.82 1894.46 1344.01 1669.02C1334.68 1630.48 1324.31 1590.66 1313.41 1550.1C1274.49 1405.31 1228.72 1251.01 1197.94 1111.04C1179.54 1027.52 1163.01 944.282 1169.21 887.882C1173.05 852.737 1186.37 830.572 1209.17 820.876C1232.36 810.987 1260.12 810.535 1289.33 810.144C1389.73 809.583 1493.81 786.595 1504.85 651.961M-55.7976 4275.31C-220.342 3893.05 -320.478 3532.97 -312.378 3293.48C-308.597 3165.32 -257.306 3106.46 -246.114 2988.41C-233.504 2855.49 -193.57 2757.16 -137.323 2681C-98.8081 2628.76 -52.3807 2587.17 -1.1085 2552.81C99.9023 2485.1 219.403 2444.62 353.838 2437.41C432.436 2433.21 514.934 2438.77 599.292 2451.23C660.745 2460.3 723.759 2472.38 788.412 2487.5C881.192 2509.2 979.218 2538.92 1063.13 2536.96C1092.38 2536.28 1119.5 2531.53 1145.06 2523.96C1254.86 2492.46 1354.94 2435.55 1400.55 2319.73C1412.32 2289.83 1420.67 2256.27 1425.23 2218.49C1442.92 2072.13 1416.11 1870.29 1355.98 1636.97C1345.73 1597.08 1334.46 1555.94 1322.68 1514.09C1280.63 1364.71 1232.11 1206.3 1200.13 1063.82C1181.01 978.776 1164.62 895.023 1170.62 837.409C1174.35 801.51 1187.37 778.301 1209.41 766.967C1231.99 755.358 1259.17 752.942 1287.95 750.953C1386.85 744.92 1492.14 722.513 1505.52 588.668M-56.0837 4263.68C-225.704 3879.49 -328.828 3517.61 -321.012 3279.26C-317.282 3149.05 -263.99 3091.22 -253.763 2969.97C-242.279 2833.78 -203.649 2731.67 -147.989 2652.68C-109.868 2598.5 -63.5232 2555.38 -11.786 2520.3C90.1578 2451.24 212.782 2412.74 352.468 2410.87C434.135 2409.77 520.403 2419.58 608.988 2436.97C673.605 2449.66 739.97 2465.77 807.954 2485C905.599 2512.64 1008.46 2548.44 1095.8 2549.97C1126.21 2550.5 1154.3 2546.64 1180.59 2539.6C1293.67 2510.26 1390.68 2445.78 1431.86 2320.76C1442.47 2288.54 1449.59 2252.56 1452.94 2212.39C1465.9 2057.09 1433.4 1846.16 1367.95 1604.97C1356.79 1563.75 1344.62 1521.28 1331.96 1478.14C1286.78 1324.17 1235.51 1161.65 1202.31 1016.64C1182.47 930.068 1166.23 845.795 1172.03 786.972C1175.63 750.296 1188.36 726.044 1209.65 713.095C1231.59 699.745 1258.19 695.369 1286.57 691.816C1383.96 680.315 1490.49 658.504 1506.17 525.415M-56.3765 4252.04C-231.085 3865.92 -337.172 3502.27 -329.647 3265.03C-325.95 3132.8 -270.337 3076.38 -261.413 2951.54C-250.704 2812.49 -213.712 2706.2 -158.657 2624.35C-120.941 2568.21 -74.6799 2523.57 -22.4585 2487.82C80.4126 2417.4 206.185 2380.9 351.097 2384.32C435.814 2386.32 525.865 2400.4 618.682 2422.71C686.463 2439.01 756.173 2459.15 827.502 2482.53C930.005 2516.11 1037.47 2557.56 1128.49 2563.01C1159.97 2564.62 1189.11 2561.79 1216.15 2555.28C1332.49 2528.09 1426.42 2456.03 1463.17 2321.81C1472.63 2287.26 1478.51 2248.86 1480.65 2206.31C1488.88 2042.07 1450.71 1822.05 1379.95 1573.01C1367.88 1530.45 1354.79 1486.64 1341.26 1442.21C1292.96 1283.65 1238.92 1117 1204.53 969.487C1183.96 881.388 1167.88 796.617 1173.47 736.562C1176.95 699.11 1189.38 673.817 1209.92 659.253C1231.23 644.161 1257.25 637.825 1285.21 632.688C1381.1 615.716 1488.84 594.488 1506.86 462.166M-56.6759 4240.38C-236.455 3852.34 -345.523 3486.91 -338.295 3250.79C-334.642 3116.5 -277.06 3061.07 -269.088 2933.06C-259.536 2790.71 -223.812 2680.66 -169.349 2595.99C-132.027 2537.9 -85.8616 2491.72 -33.1628 2455.27C70.6413 2383.51 199.543 2348.98 349.689 2357.72C437.474 2362.82 531.291 2381.16 628.338 2408.39C699.284 2428.3 772.473 2452.74 847.018 2479.99C954.564 2519.89 1066.73 2567.09 1161.13 2575.98C1193.78 2578.82 1223.89 2576.88 1251.67 2570.89C1371.29 2545.87 1462.15 2466.23 1494.47 2322.82C1502.77 2285.95 1507.43 2245.12 1508.34 2200.17C1511.85 2027.02 1467.99 1797.88 1391.9 1540.97C1378.91 1497.06 1364.92 1451.94 1350.52 1406.22C1299.08 1243.06 1242.3 1072.31 1206.7 922.279C1185.41 832.655 1169.47 747.368 1174.87 686.099C1178.23 647.871 1190.35 621.537 1210.16 605.373C1230.82 588.523 1256.29 580.262 1283.83 573.522C1378.22 551.083 1487.18 530.45 1507.52 398.899M-56.9675 4228.74C-241.823 3838.79 -353.879 3471.56 -346.947 3236.56C-343.328 3100.23 -283.775 3045.8 -276.755 2914.62C-268.373 2768.93 -233.904 2655.16 -180.046 2567.63C-143.135 2507.58 -97.0415 2459.87 -43.8584 2422.75C60.8787 2349.63 192.923 2317.11 348.294 2331.13C439.13 2339.34 536.742 2361.95 638.014 2394.09C712.119 2417.61 788.647 2446.06 866.541 2477.45C978.939 2523.27 1095.97 2576.6 1193.79 2588.95C1227.61 2593.01 1258.69 2591.97 1287.21 2586.51C1410.09 2563.64 1497.91 2476.46 1525.77 2323.83C1532.92 2284.63 1536.35 2241.39 1536.04 2194.05C1534.85 2011.97 1485.28 1773.73 1403.88 1508.96C1389.99 1463.72 1375.1 1417.27 1359.81 1370.26C1305.25 1202.5 1245.71 1027.64 1208.9 875.089C1186.88 783.94 1171.09 698.133 1176.29 635.655C1179.52 596.649 1191.34 569.255 1210.41 551.495C1230.4 532.869 1255.33 522.682 1282.46 514.378C1375.35 486.467 1485.52 466.418 1508.19 335.638M-57.2533 4217.1C-247.197 3825.21 -362.216 3456.22 -355.575 3222.33C-352.001 3083.96 -290.465 3030.53 -284.41 2896.16C-277.185 2747.17 -243.985 2629.64 -190.719 2539.28C-154.214 2477.27 -108.204 2428.04 -54.5489 2390.23C51.1155 2315.76 186.308 2285.23 346.912 2304.57C440.817 2315.88 542.193 2342.75 647.697 2379.81C724.966 2406.95 804.815 2439.39 886.077 2474.95C1003.31 2526.69 1125.24 2586.15 1226.44 2601.95C1261.42 2607.23 1293.48 2607.08 1322.74 2602.15C1448.89 2581.44 1533.65 2486.68 1557.06 2324.87C1563.07 2283.34 1565.28 2237.69 1563.74 2187.95C1557.86 1996.97 1502.57 1749.61 1415.85 1476.96C1401.05 1430.37 1385.25 1382.61 1369.08 1334.3C1311.38 1161.93 1249.1 982.987 1211.08 827.906C1188.34 735.231 1172.71 648.927 1177.7 585.217C1180.81 545.458 1192.29 516.965 1210.64 497.624C1229.99 477.24 1254.36 465.128 1281.06 455.221C1372.45 421.839 1483.84 402.371 1508.85 272.381M-57.5529 4205.45C-252.573 3811.63 -370.579 3440.84 -364.222 3208.09C-360.681 3067.68 -297.176 3015.25 -292.072 2877.71C-286.004 2725.4 -254.073 2604.13 -201.394 2510.93C-165.282 2446.98 -119.367 2396.21 -65.2345 2357.7C41.3754 2281.9 179.685 2253.32 345.528 2277.98C442.483 2292.39 547.815 2323.87 657.365 2365.49C737.914 2396.48 820.98 2432.69 905.605 2472.41C1027.68 2530.05 1154.5 2595.68 1259.1 2614.92C1295.26 2621.42 1328.27 2622.16 1358.27 2617.76C1487.69 2599.21 1569.83 2497.41 1588.36 2325.85C1593.33 2282.14 1594.19 2233.93 1591.44 2181.8C1580.86 1981.89 1519.87 1725.43 1427.82 1444.94C1412.11 1397.01 1395.4 1347.9 1378.36 1298.32C1317.53 1121.35 1252.51 938.297 1213.28 780.707C1189.84 686.526 1174.34 599.683 1179.13 534.763C1182.12 494.227 1193.28 464.678 1210.91 443.734C1229.57 421.558 1253.41 407.536 1279.7 396.045C1369.58 357.195 1482.2 338.326 1509.52 209.088M-57.846 4193.81C-257.936 3798.07 -378.918 3425.5 -372.858 3193.87C-369.368 3051.41 -303.887 2999.96 -299.735 2859.25C-294.824 2703.64 -264.149 2578.64 -212.075 2482.59C-176.368 2416.67 -130.536 2364.38 -75.9142 2325.19C31.6229 2248.04 173.081 2221.46 344.15 2251.41C444.168 2268.93 553.233 2304.61 667.052 2351.2C750.74 2385.77 837.164 2426.03 925.132 2469.89C1052.04 2533.44 1183.76 2605.21 1291.76 2627.91C1329.09 2635.66 1363.07 2637.27 1393.81 2633.39C1526.5 2617.01 1605.51 2507.54 1619.66 2326.88C1623.45 2280.8 1623.24 2230.33 1619.14 2175.7C1604.35 1967.39 1537.16 1701.3 1439.8 1412.93C1423.17 1363.66 1405.56 1313.23 1387.65 1262.38C1323.7 1080.82 1255.9 893.638 1215.48 733.536C1191.31 637.83 1175.96 550.471 1180.56 484.338C1183.42 443.025 1194.25 412.4 1211.17 389.894C1229.17 365.946 1252.47 350.013 1278.34 336.943C1366.72 292.622 1480.56 274.333 1510.2 145.866M-58.133 4182.17C-263.312 3784.5 -387.256 3410.16 -381.493 3179.65C-378.036 3035.15 -310.585 2984.7 -307.379 2840.81C-303.638 2681.87 -274.224 2553.15 -222.737 2454.26C-187.429 2386.4 -141.669 2332.58 -86.5935 2292.68C21.8767 2214.18 166.477 2189.6 342.779 2224.86C445.853 2245.47 558.663 2285.36 676.746 2336.94C763.561 2375.06 853.349 2419.37 944.686 2467.41C1076.43 2536.87 1213.04 2614.78 1324.45 2640.94C1362.94 2649.91 1397.89 2652.42 1429.37 2649.07C1565.33 2634.84 1641.2 2517.69 1650.99 2327.94C1653.62 2279.52 1652.17 2226.62 1646.87 2169.62C1627.24 1952.22 1554.49 1677.2 1451.8 1380.96C1434.27 1330.36 1415.74 1278.6 1396.96 1226.45C1329.88 1040.3 1259.33 849.01 1217.7 686.381C1192.8 589.15 1177.61 501.29 1182 433.928C1184.74 391.839 1195.23 360.142 1211.44 336.051C1228.75 310.312 1251.53 292.469 1276.98 277.815C1363.87 228.045 1478.91 210.317 1510.89 82.6397M-58.4367 4170.51C-268.692 3770.92 -395.624 3394.79 -390.151 3165.39C-386.739 3018.84 -317.306 2969.4 -315.053 2822.34C-312.469 2660.09 -284.322 2527.62 -233.44 2425.88C-198.538 2356.06 -152.861 2300.71 -97.2957 2260.14C12.1017 2180.29 159.831 2157.68 341.378 2198.26C447.515 2221.98 564.064 2266.06 686.415 2322.62C776.37 2364.31 869.516 2412.67 964.215 2464.87C1100.79 2540.23 1242.31 2624.3 1357.11 2653.91C1396.77 2664.1 1432.67 2667.48 1464.91 2664.68C1604.14 2652.61 1676.87 2527.78 1682.29 2328.93C1683.74 2278.14 1681.04 2222.81 1674.56 2163.47C1650.11 1936.99 1571.77 1653.03 1463.77 1348.92C1445.33 1296.98 1425.9 1243.89 1406.23 1190.45C1336.02 999.701 1262.73 804.304 1219.89 639.166C1194.27 540.409 1179.23 452.033 1183.42 383.458C1186.03 340.593 1196.09 307.676 1211.69 282.145C1228.22 254.466 1250.58 234.879 1275.61 218.623C1360.99 163.382 1477.24 146.234 1511.55 19.3275M-58.7243 4158.87C-274.056 3757.36 -403.963 3379.45 -398.787 3151.17C-395.408 3002.59 -324.01 2954.14 -322.716 2803.89C-321.288 2638.33 -294.41 2502.11 -244.121 2397.53C-141.692 2184.51 58.3349 2102.5 339.994 2171.69C529.458 2218.23 752.288 2329.35 983.749 2462.37C1125.17 2543.64 1271.57 2633.86 1389.77 2666.92C1607.08 2727.71 1712.28 2586.02 1713.6 2329.98C1714.91 2073.95 1618.75 1710.62 1475.74 1316.94C1345.98 959.692 1172.31 552.2 1184.83 333.04C1199.16 82.4003 1454.85 153.673 1512.22 -43.8879M-1375.5 1593.34C-1060.43 2074.16 -692.692 2522.06 -356.092 2834.96C-260.33 2923.97 -163.806 3004.43 -94.4427 3026.5C105.967 3090.23 33.5559 2723.92 18.7953 2499.58C0.99418 2228.87 -24.4244 1949.37 -16.9443 1706.95C-12.7466 1570.86 12.5312 1441.87 149.505 1511.79C288.217 1582.6 484.014 1826.44 659.879 2035.45C864.804 2279.01 1075.22 2505.55 1263.72 2655.53C1452.22 2805.51 1617.03 2871.76 1681.81 2788.09C1732.54 2722.57 1719.6 2573.15 1692.97 2414.23C1622.97 1996.64 1461.2 1486.72 1222.47 931.194M-1365.46 1616.35C-1087 2041.31 -768.078 2428.43 -453.206 2734.78C-423.962 2763.23 -394.863 2791 -366.019 2817.67C-271.245 2905.28 -175.821 2984.63 -106.77 3007.4C93.0359 3073.4 28.8509 2723.49 17.8778 2505.17C8.1462 2311.62 -7.39293 2110.52 -10.6323 1921.76C-11.8829 1856.09 -11.7274 1791.99 -9.49034 1730.23C-4.62736 1596.29 20.4342 1468.96 153.544 1534.04C288.331 1599.96 478.32 1833.26 649.101 2032.97C848.1 2265.67 1052.53 2482.05 1236.09 2624.8C1300 2674.5 1361.17 2714.43 1416.5 2741.89C1520.06 2793.34 1603.21 2801.21 1645.52 2747.9C1696.35 2683.86 1685.95 2539.24 1662.71 2386.22C1615.77 2076.59 1517.6 1717.02 1372.23 1322.85C1328.85 1205.24 1281.29 1084.57 1229.59 961.216M-1355.43 1639.34C-1086.25 2050.13 -780.092 2412.76 -462.109 2718.96C-433.25 2746.75 -404.471 2774.13 -375.967 2800.35C-282.189 2886.51 -187.858 2964.79 -119.102 2988.27C80.1189 3056.55 24.1309 2723.03 16.9386 2510.72C10.6241 2324.22 -3.03395 2127.53 -4.43436 1941.66C-5.16625 1877.23 -4.59764 1814.24 -2.05778 1753.47C3.4581 1621.65 28.3209 1495.99 157.561 1556.25C288.435 1617.29 472.617 1840.05 638.296 2030.45C831.363 2252.28 1029.81 2458.51 1208.41 2594.01C1270.6 2641.18 1330.19 2678.97 1384.17 2704.77C1485.21 2753.13 1566.8 2759.74 1609.19 2707.65C1660.1 2645.08 1652.26 2505.28 1632.42 2358.18C1592.45 2060.54 1504.44 1717.77 1369.73 1339.26C1329.53 1226.32 1285.2 1110.23 1236.69 991.199M-1345.4 1662.35C-1085.5 2058.97 -792.128 2397.12 -471.006 2703.17C-442.512 2730.33 -414.066 2757.3 -385.915 2783.04C-293.126 2867.8 -199.901 2944.94 -131.452 2969.15C67.1659 3039.7 19.3637 2722.57 16 2516.29C13.0729 2336.84 1.848 2145.17 1.74549 1961.56C1.70397 1898.58 2.51416 1836.5 5.36256 1776.71C11.5438 1647.04 36.1956 1523.03 161.561 1578.47C288.521 1634.62 466.884 1846.84 627.478 2027.93C814.619 2238.91 1007.07 2434.98 1180.73 2563.25C1241.2 2607.89 1299.2 2643.54 1351.84 2667.69C1450.37 2712.97 1530.39 2718.31 1572.86 2667.43C1623.86 2606.33 1618.56 2471.35 1602.13 2330.16C1569.13 2044.5 1491.29 1718.54 1367.22 1355.68C1330.2 1247.4 1289.1 1135.91 1243.75 1021.17M-1335.37 1685.33C-1084.75 2067.79 -804.172 2381.53 -479.901 2687.35C-451.784 2713.86 -423.653 2740.44 -395.855 2765.71C-304.062 2849.03 -211.93 2925.09 -143.781 2950.02C54.2328 3022.84 14.5798 2722.08 15.0686 2521.83C15.4925 2349.4 6.38098 2162.36 7.95143 1981.46C8.4775 1919.77 9.64621 1858.76 12.8031 1799.95C19.6373 1672.41 44.0721 1550.05 165.586 1600.68C288.621 1651.93 461.176 1853.61 616.686 2025.4C797.902 2225.52 984.377 2411.46 1153.09 2532.48C1211.84 2574.6 1268.24 2608.1 1319.55 2630.59C1415.54 2672.78 1494 2676.85 1536.57 2627.22C1587.67 2567.6 1584.91 2437.42 1571.88 2302.14C1545.86 2028.48 1478.18 1719.32 1364.77 1372.11C1330.94 1268.5 1293.06 1161.59 1250.89 1051.18M-1325.33 1708.33C-1084 2076.63 -816.219 2365.98 -488.793 2671.55C-461.047 2697.44 -433.251 2723.59 -405.799 2748.4C-314.994 2830.31 -223.957 2905.26 -156.121 2930.89C41.2896 3005.98 9.75637 2721.57 14.1275 2527.37C17.8534 2361.9 10.8796 2179.55 14.1287 2001.33C15.2224 1940.95 16.7554 1880.99 20.2151 1823.17C27.7146 1697.77 51.9386 1577.07 169.583 1622.87C288.705 1669.24 455.434 1860.37 605.866 2022.85C781.162 2212.13 961.64 2387.9 1125.4 2501.67C1182.42 2541.26 1237.25 2572.62 1287.22 2593.46C1380.69 2632.57 1457.59 2635.37 1500.22 2586.95C1551.41 2528.79 1551.19 2403.42 1541.57 2274.06C1522.5 2012.38 1465 1720.02 1362.24 1388.46C1331.58 1289.52 1296.93 1187.2 1257.94 1081.11M-1315.29 1731.35C-1083.24 2085.47 -828.264 2350.52 -497.675 2655.78C-470.306 2681.05 -442.83 2706.78 -415.726 2731.12C-325.923 2811.59 -235.973 2885.46 -168.437 2911.81C28.3754 2989.16 4.92626 2721.1 13.2218 2532.98C20.2077 2374.45 15.4199 2196.79 20.3603 2021.29C22.0216 1962.21 23.9187 1903.3 27.6937 1846.49C35.8461 1723.22 59.8657 1604.19 173.646 1645.16C288.856 1686.65 449.765 1867.23 595.112 2020.41C764.483 2198.83 938.968 2364.44 1097.79 2470.98C1153.09 2508.04 1206.33 2537.26 1254.95 2556.43C1345.91 2592.46 1421.24 2593.99 1463.96 2546.8C1515.23 2490.11 1517.56 2369.55 1511.35 2246.11C1499.25 1996.42 1451.92 1720.86 1359.81 1404.96C1332.33 1310.69 1300.91 1212.95 1265.1 1111.19M-1305.26 1754.33C-1082.49 2094.29 -840.328 2335.06 -506.572 2639.96C-479.567 2664.63 -452.42 2689.92 -425.675 2713.79C-336.854 2792.85 -248.004 2865.61 -180.781 2892.66C15.44 2972.3 0.0193368 2720.52 12.27 2538.5C22.4794 2386.88 19.89 2213.95 26.533 2041.15C28.7494 1983.35 31.0355 1925.53 35.1009 1869.68C43.9187 1748.57 67.7273 1631.19 177.638 1667.33C288.922 1703.92 444.036 1873.98 584.282 2017.85C747.72 2185.41 916.219 2340.87 1070.08 2440.16C1123.67 2474.71 1175.32 2501.77 1222.6 2519.29C1311.03 2552.24 1384.79 2552.48 1427.6 2506.51C1478.98 2451.31 1483.84 2335.55 1481.04 2218.02C1475.91 1980.32 1438.74 1721.57 1357.29 1421.3C1332.99 1331.71 1304.8 1238.55 1272.17 1141.1M-1295.23 1777.34C-1081.74 2103.14 -852.381 2319.71 -515.467 2624.17C-488.832 2648.24 -462.025 2673.08 -435.615 2696.49C-347.795 2774.11 -260.045 2845.77 -193.123 2873.54C2.49501 2955.45 -4.92018 2719.96 11.3392 2544.07C24.7174 2399.32 24.3867 2231.14 32.7334 2061.07C35.5116 2004.58 38.1678 1947.81 42.5417 1892.95C52.0124 1773.96 75.6168 1658.25 181.651 1689.54C289.023 1721.25 438.317 1880.76 573.478 2015.32C730.991 2172.03 893.503 2317.33 1042.42 2409.39C1094.29 2441.41 1144.34 2466.33 1190.3 2482.2C1276.2 2512.06 1348.4 2511.05 1391.29 2466.29C1442.75 2412.55 1450.16 2301.61 1450.76 2189.98C1452.6 1964.27 1425.6 1722.32 1354.8 1437.71C1333.68 1352.78 1308.73 1264.23 1279.25 1171.07M-1285.18 1800.35C-1080.98 2111.98 -864.415 2304.42 -524.357 2608.37C-498.091 2631.84 -471.607 2656.25 -445.556 2679.18C-358.719 2755.39 -272.069 2825.94 -205.453 2854.43C-10.4331 2938.61 -9.89138 2719.36 10.4074 2549.64C26.9056 2411.7 28.852 2248.29 38.9262 2080.97C42.2471 2025.74 45.2924 1970.07 49.9691 1916.19C60.1051 1799.35 83.4983 1685.3 185.663 1711.76C289.122 1738.59 432.596 1887.54 562.673 2012.8C714.26 2158.64 870.78 2293.79 1014.75 2378.6C1064.89 2408.09 1113.37 2430.87 1157.98 2445.09C1241.36 2471.87 1311.99 2469.57 1354.97 2426.06C1406.53 2373.81 1416.49 2267.67 1420.48 2161.95C1429.28 1948.22 1412.45 1723.08 1352.3 1454.12C1334.36 1373.86 1312.64 1289.89 1286.34 1201.06M-1275.16 1823.33C-1080.24 2120.8 -876.472 2289.17 -533.249 2592.57C-507.346 2615.47 -481.197 2639.41 -455.481 2661.89C-369.646 2736.66 -284.083 2806.13 -217.774 2835.32C-23.3574 2921.77 -14.901 2718.74 9.49755 2555.22C29.0668 2424.04 33.3331 2265.46 45.1532 2100.89C49.0235 2046.95 52.4514 1992.35 57.4309 1939.45C68.2199 1824.74 91.4088 1712.37 189.71 1734C289.256 1755.95 426.909 1894.35 551.903 2010.31C697.558 2145.29 848.092 2270.28 987.121 2347.86C1035.55 2374.84 1082.44 2395.48 1125.71 2408.03C1206.57 2431.73 1275.63 2428.16 1318.69 2385.86C1370.34 2335.07 1382.84 2233.75 1390.24 2133.95C1406.02 1932.22 1399.37 1723.9 1349.86 1470.57C1335.1 1394.98 1316.61 1315.59 1293.49 1231.08M-1265.12 1846.34C-1079.48 2129.64 -888.487 2274.04 -542.138 2576.78C-516.598 2599.1 -490.79 2622.56 -465.421 2644.59C-380.568 2717.94 -296.105 2786.31 -230.102 2816.22C-36.2895 2904.93 -19.9805 2718.05 8.56681 2560.78C31.1525 2436.32 37.7937 2282.62 51.3414 2120.8C55.7485 2068.12 59.5711 2014.61 64.8535 1962.7C76.3078 1850.14 99.2732 1739.39 193.711 1756.22C289.332 1773.27 421.185 1901.16 541.075 2007.77C680.816 2131.91 825.346 2246.74 959.432 2317.09C1006.13 2341.53 1051.44 2360.04 1093.36 2370.91C1171.7 2391.54 1239.2 2386.7 1282.34 2345.62C1334.08 2296.3 1349.14 2199.8 1359.93 2105.9C1382.67 1916.14 1386.19 1724.63 1347.35 1486.97C1335.76 1416.04 1320.5 1341.24 1300.56 1261.06M-1255.09 1869.32C-1078.73 2138.45 -900.496 2258.98 -551.042 2560.96C-525.871 2582.71 -500.366 2605.77 -475.37 2627.26C-391.458 2699.38 -308.156 2766.44 -242.454 2797.07C-49.2319 2888.07 -25.1184 2717.29 7.60821 2566.31C33.1546 2448.5 42.2015 2299.71 57.52 2140.68C62.4641 2089.27 66.6881 2036.87 72.2848 1985.94C84.3919 1875.5 107.153 1766.43 197.727 1778.42C289.435 1790.59 415.468 1907.93 530.268 2005.25C664.084 2118.53 802.621 2223.2 931.756 2286.3C976.732 2308.21 1020.46 2324.58 1061.04 2333.8C1136.85 2351.33 1202.79 2345.22 1246.01 2305.37C1297.85 2257.54 1315.44 2165.84 1329.64 2077.85C1359.35 1900.09 1373.03 1725.38 1344.84 1503.35C1336.43 1437.1 1324.4 1366.89 1307.62 1291M-1245.06 1892.33C-1077.98 2147.3 -912.474 2244.03 -559.931 2545.16C-535.116 2566.36 -509.966 2588.93 -485.31 2609.96C-402.387 2680.66 -320.179 2746.62 -254.777 2777.97C-62.1532 2871.23 -30.3085 2716.48 6.69531 2571.89C35.1478 2460.68 46.6548 2316.85 63.7258 2160.59C69.201 2110.46 73.8256 2059.14 79.7251 2009.2C92.4976 1900.91 115.048 1793.49 201.752 1800.66C289.547 1807.95 409.761 1914.73 519.477 2002.74C647.361 2105.17 779.912 2199.68 904.108 2255.55C947.377 2274.95 989.502 2289.16 1028.76 2296.73C1102.05 2311.18 1166.42 2303.8 1209.73 2265.18C1261.65 2218.81 1281.79 2131.93 1299.4 2049.86C1336.07 1884.08 1359.93 1726.18 1342.39 1519.81C1337.17 1458.22 1328.37 1392.6 1314.77 1321.03M-1235.01 1915.34C-1077.22 2156.14 -924.425 2229.18 -568.82 2529.37C-544.361 2550.01 -519.547 2572.09 -495.245 2592.65C-413.31 2661.94 -332.202 2726.79 -267.113 2758.84C-75.0928 2854.38 -35.5595 2715.61 5.75797 2577.44C37.0609 2472.75 51.0593 2333.93 69.925 2180.49C75.9372 2131.62 80.957 2081.39 87.1593 2032.43C100.585 1926.28 122.93 1820.53 205.771 1822.87C289.641 1825.26 404.046 1921.51 508.678 2000.22C630.636 2091.78 757.201 2176.14 876.441 2224.76C917.984 2241.63 958.529 2253.7 996.444 2259.62C1067.21 2270.99 1130.02 2262.34 1173.41 2224.93C1225.42 2180.03 1248.11 2097.97 1269.11 2021.79C1312.77 1868.01 1346.78 1726.9 1339.89 1536.17C1337.85 1479.26 1332.28 1418.21 1321.85 1350.97M-1224.99 1938.33C-1076.48 2164.97 -936.362 2214.42 -577.715 2513.58C-553.619 2533.67 -529.141 2555.27 -505.192 2575.35C-424.246 2643.23 -344.232 2706.97 -279.443 2739.74C-88.0263 2837.54 -40.8845 2714.67 4.83862 2583.03C38.9432 2484.82 55.4756 2351.04 76.1304 2200.41C82.667 2152.79 88.0938 2103.67 94.5989 2055.69C108.69 1951.69 130.824 1847.59 209.795 1845.1C289.752 1842.61 398.351 1928.33 497.886 1997.71C613.912 2078.42 734.491 2152.62 848.786 2194.01C888.605 2208.35 927.563 2218.29 964.133 2222.53C1032.39 2230.83 1093.61 2220.89 1137.08 2184.71C1189.19 2141.29 1214.42 2064.03 1238.83 1993.77C1289.44 1851.96 1333.64 1727.67 1337.4 1552.6C1338.55 1500.37 1336.21 1443.91 1328.95 1380.98M-1214.95 1961.33C-1075.72 2173.8 -948.247 2199.78 -586.6 2497.77C-562.853 2517.34 -538.718 2538.43 -515.122 2558.03C-435.171 2624.48 -356.353 2686.91 -291.774 2720.61C-101.251 2820.03 -46.2792 2713.62 3.90526 2588.57C40.7432 2496.74 59.8596 2368.09 82.3283 2220.3C89.3835 2173.93 95.2237 2125.92 102.032 2078.93C116.775 1977.05 138.705 1874.63 213.812 1867.31C289.862 1859.93 392.635 1935.1 487.081 1995.19C597.181 2065.04 711.767 2129.08 821.112 2163.22C859.218 2175.05 896.583 2182.83 931.814 2185.43C997.534 2190.62 1057.21 2179.43 1100.76 2144.48C1152.97 2102.52 1180.75 2030.08 1208.56 1965.74C1266.15 1835.93 1320.5 1728.43 1334.92 1569C1339.24 1521.45 1340.13 1469.57 1336.05 1410.93M-1204.93 1984.32C-1074.98 2182.62 -960.112 2185.25 -595.51 2481.96C-572.112 2501 -548.332 2521.56 -525.082 2540.71C-446.121 2605.74 -368.402 2667.07 -304.137 2701.47C-114.204 2803.18 -51.7603 2712.48 2.93548 2594.1C42.4455 2508.6 64.1947 2385.11 88.4831 2240.17C96.0446 2195.03 102.31 2148.14 109.427 2102.14C124.836 2002.4 146.555 1901.64 217.78 1889.47C289.905 1877.19 386.864 1941.83 476.231 1992.61C580.406 2051.6 689 2105.49 793.407 2132.4C829.787 2141.7 865.572 2147.34 899.464 2148.28C962.663 2150.4 1020.76 2137.92 1064.41 2104.19C1116.71 2063.72 1147.01 1996.07 1178.23 1937.64C1242.78 1819.81 1307.31 1729.12 1332.38 1585.35C1339.89 1542.46 1344 1495.18 1343.09 1440.86M-1194.88 2007.33C-1074.21 2191.48 -971.93 2170.84 -604.394 2466.16C-581.352 2484.67 -557.915 2504.72 -535.013 2523.4C-457.047 2586.99 -380.416 2647.23 -316.45 2682.36C-127.116 2786.33 -57.2914 2711.25 2.03272 2599.68C44.1591 2520.41 68.5843 2402.15 94.7117 2260.1C102.779 2216.19 109.483 2170.44 116.89 2125.41C132.952 2027.8 154.454 1928.69 221.827 1911.71C290.039 1894.55 381.179 1948.64 465.462 1990.12C563.717 2038.26 666.325 2082 765.781 2101.66C800.436 2108.43 834.634 2111.93 867.194 2111.22C927.877 2110.26 984.413 2096.51 1028.14 2064.01C1080.53 2025.01 1113.38 1962.17 1148.01 1909.66C1219.53 1803.83 1294.24 1729.95 1329.94 1601.8C1340.63 1563.59 1347.96 1520.88 1350.24 1470.89M-1184.85 2030.33C-1073.46 2200.33 -983.687 2156.58 -613.276 2450.39C-590.577 2468.39 -567.501 2487.89 -544.946 2506.12C-467.968 2568.3 -392.437 2627.43 -328.785 2663.26C-140.042 2769.52 -62.912 2709.94 1.09607 2605.25C45.7889 2532.16 72.9091 2419.15 100.899 2280C109.473 2237.33 116.603 2192.7 124.325 2148.67C141.052 2053.21 162.343 1955.75 225.847 1933.94C290.146 1911.91 375.478 1955.46 454.664 1987.62C546.994 2024.9 643.61 2058.49 738.109 2070.9C771.052 2075.16 803.657 2076.5 834.866 2074.12C893.027 2070.09 947.999 2055.07 991.796 2023.77C1044.28 1986.24 1079.68 1928.22 1117.71 1881.62C1196.19 1787.77 1281.08 1730.71 1327.44 1618.22C1341.3 1584.67 1351.87 1546.55 1357.33 1500.88M-1174.82 2053.32C-1072.71 2209.14 -995.412 2142.44 -622.179 2434.57C-599.822 2452.07 -577.096 2471.04 -554.894 2488.79C-478.912 2549.54 -404.468 2607.58 -341.122 2644.13C-152.964 2752.68 -68.628 2708.47 0.169673 2610.81C47.3733 2543.82 77.2446 2436.15 107.11 2299.91C116.19 2258.48 123.74 2214.98 131.77 2171.93C149.15 2078.6 170.243 1982.81 229.871 1956.18C290.245 1929.24 369.77 1962.26 443.872 1985.11C530.275 2011.54 620.905 2034.97 710.46 2040.15C741.678 2041.88 772.696 2041.08 802.573 2037.05C858.2 2029.92 911.608 2013.63 955.507 1983.58C1008.09 1947.53 1046.03 1894.32 1087.45 1853.61C1172.91 1771.76 1267.95 1731.49 1324.97 1634.66C1342.02 1605.78 1355.82 1572.25 1364.45 1530.9M-1164.78 2076.33C-1071.95 2217.98 -1007.07 2128.44 -631.063 2418.77C-609.042 2435.78 -586.678 2454.21 -564.829 2471.48C-489.842 2530.79 -416.414 2587.95 -353.453 2625C-165.634 2736.43 -74.4248 2706.87 -0.762696 2616.35C48.8893 2555.36 81.5557 2453.11 113.297 2319.79C122.87 2279.57 130.858 2237.21 139.191 2195.15C157.237 2103.97 178.113 2009.83 233.877 1978.37C290.338 1946.55 364.043 1969.01 433.055 1982.57C513.527 1998.14 598.17 2011.41 682.775 2009.35C712.267 2008.54 741.705 2005.61 770.243 1999.93C823.355 1989.71 875.192 1972.16 919.168 1943.31C971.84 1908.73 1012.33 1860.33 1057.16 1825.54C1149.58 1755.67 1254.8 1732.21 1322.46 1651.03C1342.69 1626.82 1359.73 1597.88 1371.52 1560.82M-1154.75 2099.32C-1071.21 2226.81 -1018.69 2114.58 -639.971 2402.96C-618.293 2419.46 -596.292 2437.34 -574.783 2454.16C-500.792 2512.03 -428.451 2568.1 -365.796 2605.88C-178.568 2719.59 -80.3218 2705.14 -1.71356 2621.9C50.3244 2566.82 85.8233 2470.04 119.483 2339.69C129.55 2300.69 137.976 2259.47 146.618 2218.38C165.316 2129.34 185.994 2036.87 237.888 2000.58C290.436 1963.88 358.321 1975.79 422.249 1980.05C496.795 1984.76 575.446 1987.88 655.113 1978.58C682.898 1975.26 710.744 1970.19 737.936 1962.83C788.527 1949.55 838.806 1930.72 882.847 1903.09C935.606 1869.97 978.645 1826.39 1026.88 1797.52C1126.28 1739.64 1241.66 1732.98 1319.99 1667.45C1343.39 1647.91 1363.66 1623.56 1378.62 1590.83M-1144.71 2122.32C-1070.45 2235.65 -1030.22 2100.9 -648.85 2387.18C-627.507 2403.2 -605.861 2420.52 -584.712 2436.87C-511.716 2493.31 -440.469 2548.3 -378.121 2586.77C-191.497 2702.76 -86.2943 2703.27 -2.62756 2627.49C51.7522 2578.23 90.1278 2487 125.693 2359.61C136.255 2321.81 145.131 2281.76 154.063 2241.64C173.427 2154.74 193.887 2063.93 241.918 2022.81C290.541 1981.21 352.625 1982.61 411.462 1977.54C480.082 1971.39 552.741 1964.36 627.451 1947.81C653.511 1941.96 679.776 1934.75 705.618 1925.73C753.693 1909.36 802.39 1889.24 846.532 1862.86C899.39 1831.22 944.966 1792.45 996.609 1769.49C1102.97 1723.59 1228.52 1733.74 1317.49 1683.85C1344.07 1668.98 1367.58 1649.22 1385.72 1620.8M-1134.68 2145.33C-1069.7 2244.49 -1041.69 2087.37 -657.74 2371.38C-636.721 2386.94 -615.47 2403.62 -594.648 2419.56C-522.707 2474.39 -452.487 2528.46 -390.458 2567.65C-204.432 2685.89 -92.3791 2701.23 -3.56661 2633.03C53.105 2589.53 94.3697 2503.87 131.885 2379.5C142.922 2342.91 152.254 2304.01 161.49 2264.88C181.506 2180.11 201.768 2090.97 245.93 2045.02C290.64 1998.54 346.904 1989.39 400.657 1975.02C463.358 1958.02 530.018 1940.82 599.789 1917.04C624.124 1908.66 648.809 1899.31 673.312 1888.64C718.853 1869.17 765.998 1847.81 810.217 1822.63C863.162 1792.46 911.293 1758.5 966.325 1741.44C1079.66 1707.54 1215.37 1734.49 1315 1700.26C1344.77 1690.05 1371.49 1674.88 1392.82 1650.78M-1124.65 2168.32C-1068.95 2253.31 -1053.1 2073.99 -666.641 2355.57C-645.959 2370.64 -625.082 2386.76 -604.588 2402.26C-533.649 2455.65 -464.528 2508.62 -402.787 2548.54C-217.364 2669.06 -98.5511 2699.03 -4.48513 2638.62C54.4273 2600.77 98.6324 2520.78 138.092 2399.42C149.61 2364.02 159.392 2326.29 168.943 2288.16C189.625 2205.54 209.658 2118.03 249.968 2067.27C290.765 2015.91 341.209 1996.2 389.878 1972.53C446.653 1944.68 507.321 1917.32 572.154 1886.31C594.776 1875.42 617.862 1863.91 641.032 1851.59C684.052 1829.05 729.626 1806.39 773.941 1782.45C826.973 1753.75 877.652 1724.62 936.092 1713.47C1056.38 1691.55 1202.28 1735.31 1312.56 1716.72C1345.5 1711.18 1375.46 1700.59 1399.94 1680.8M-1114.61 2191.33C-1068.2 2262.15 -1064.42 2060.8 -675.537 2339.78C-655.177 2354.38 -634.669 2369.93 -614.528 2384.95C-544.572 2436.93 -476.552 2488.8 -415.124 2529.42C-230.304 2652.2 -104.818 2696.66 -5.42307 2644.16C55.6918 2611.89 102.85 2537.61 144.285 2419.32C156.272 2385.1 166.518 2348.54 176.377 2311.4C197.712 2230.9 217.546 2145.07 253.973 2089.46C290.858 2033.22 335.482 2002.96 379.061 1969.99C429.904 1931.28 484.586 1893.77 544.468 1855.5C565.365 1842.08 586.87 1828.44 608.702 1814.46C649.206 1788.84 693.21 1764.91 737.596 1742.19C790.728 1714.97 843.949 1690.64 905.791 1685.41C1033.06 1675.48 1189.12 1736.06 1310.05 1733.11C1346.17 1732.25 1379.36 1726.24 1407.02 1710.77M-1104.58 2214.31C-1067.45 2270.97 -1075.68 2047.78 -684.435 2323.96C-664.405 2338.09 -644.26 2353.07 -624.477 2367.63C-555.523 2418.17 -488.589 2468.95 -427.462 2510.29C-243.234 2635.36 -111.183 2694.09 -6.36852 2649.71C56.9103 2622.92 107.043 2554.43 150.464 2439.2C162.914 2406.16 173.628 2370.78 183.79 2334.62C205.79 2256.27 225.408 2172.09 257.972 2111.65C290.931 2050.51 329.76 2009.74 368.242 1967.45C413.16 1917.88 461.855 1870.21 516.793 1824.71C535.965 1808.76 555.884 1792.98 576.389 1777.35C614.371 1748.65 656.811 1723.45 701.287 1701.96C754.511 1676.2 810.274 1656.69 875.511 1657.36C1009.74 1659.41 1175.98 1736.8 1307.56 1749.51C1346.86 1753.31 1383.28 1751.89 1414.13 1740.74M-1094.55 2237.32C-1066.7 2279.82 -1086.83 2034.96 -693.317 2308.18C-673.598 2321.87 -653.853 2336.24 -634.406 2350.34C-566.434 2399.46 -500.601 2449.14 -439.792 2491.19C-256.161 2618.53 -117.628 2691.37 -7.28782 2655.3C58.1165 2633.91 111.236 2571.24 156.681 2459.14C169.6 2427.27 180.784 2393.09 191.242 2357.9C213.895 2281.68 233.314 2199.17 262.003 2133.91C291.049 2067.89 324.058 2016.56 357.456 1964.96C396.448 1904.53 439.151 1846.71 489.133 1793.97C506.592 1775.51 524.918 1757.57 544.072 1740.26C579.521 1708.47 620.402 1682 664.961 1661.73C718.284 1637.47 776.584 1622.75 845.234 1629.33C986.425 1643.36 1162.84 1737.57 1305.07 1765.91C1347.55 1774.39 1387.21 1777.57 1421.22 1770.73M-1084.5 2260.32C-1065.94 2288.65 -1097.89 2022.32 -702.207 2292.39C-682.805 2305.63 -663.435 2319.41 -644.347 2333.04C-577.376 2380.73 -512.643 2429.3 -452.116 2472.08C-269.089 2601.69 -124.158 2688.46 -8.21392 2660.86C59.2832 2644.79 115.404 2588 162.874 2479.04C176.243 2448.33 187.909 2415.35 198.67 2381.14C221.988 2307.07 241.191 2226.22 266.015 2156.12C291.148 2085.22 318.338 2023.34 346.652 1962.44C379.712 1891.16 416.429 1823.17 461.472 1763.2C477.206 1742.21 493.945 1722.13 511.766 1703.18C544.7 1668.3 584.011 1640.57 628.641 1621.51C682.051 1598.71 742.906 1588.81 814.958 1601.31C963.122 1627.34 1149.7 1738.33 1302.59 1782.34C1348.25 1795.48 1391.14 1803.25 1428.31 1800.71M-1074.47 2283.31C-1065.19 2297.48 -1108.86 2009.88 -711.103 2276.57C-692.012 2289.37 -673.042 2302.54 -654.288 2315.7C-588.306 2361.98 -524.667 2409.45 -464.459 2452.93C-282.036 2584.81 -130.784 2685.32 -9.14624 2666.4C60.4291 2655.58 119.305 2604.39 169.079 2498.93C182.836 2469.29 195.045 2437.6 206.109 2404.37C230.08 2332.43 249.084 2253.25 270.039 2178.33C291.247 2102.53 312.623 2030.11 335.859 1959.91C362.993 1877.76 393.718 1799.63 433.81 1732.41C447.819 1708.88 462.977 1686.67 479.46 1666.06C509.872 1628.11 547.619 1599.1 592.338 1581.27C645.835 1559.94 709.226 1554.84 784.685 1573.26C939.812 1611.26 1136.56 1739.07 1300.1 1798.72C1348.93 1816.53 1395.05 1828.88 1435.41 1830.67M-1064.44 2306.32C-1064.44 2306.32 -1119.75 1997.64 -719.999 2260.77C-320.253 2523.91 -6.89358 2881.03 175.265 2518.83C301.136 2268.53 298.287 1848.01 447.143 1628.98C508.389 1538.86 609.609 1500.58 754.402 1545.23C916.503 1595.24 1123.41 1739.84 1297.61 1815.15C1349.63 1837.63 1398.97 1854.57 1442.51 1860.67" stroke="#0067F5" stroke-width="0.5" stroke-miterlimit="10"/>
</svg>
